<svg width="800" height="800" viewBox="0 0 800 800" fill="none" xmlns="http://www.w3.org/2000/svg">
<path d="M220.342 371H12C12 371 23.1116 478.204 220.342 467.209C417.572 456.213 220.342 371 220.342 371Z" fill="#949494" stroke="#949494"/>
<path d="M245.499 297.014L53.1133 217.325C53.1133 217.325 21.9357 321.616 208.311 386.794C394.686 451.972 245.499 297.014 245.499 297.014Z" fill="#949494" stroke="#949494"/>
<path d="M292.742 227.246L145.496 80C145.496 80 76.7817 164.421 224.027 295.96C371.273 427.5 292.742 227.246 292.742 227.246Z" fill="#949494" stroke="#949494"/>
<path d="M579.658 372H788C788 372 776.888 479.204 579.658 468.209C382.428 457.213 579.658 372 579.658 372Z" fill="#949494" stroke="#949494"/>
<path d="M554.328 298.417L746.713 218.728C746.713 218.728 777.891 323.019 591.516 388.197C405.141 453.375 554.328 298.417 554.328 298.417Z" fill="#949494" stroke="#949494"/>
<path d="M507.085 228.649L654.33 81.4032C654.33 81.4032 723.045 165.824 575.799 297.363C428.554 428.903 507.085 228.649 507.085 228.649Z" fill="#949494" stroke="#949494"/>
<path d="M173 337.161L392.225 204L617 337.161V597.935L392.225 720L173 597.935V337.161Z" fill="#D9D9D9"/>
<path d="M218 365.323L393.281 259L573 365.323V573.538L393.281 671L218 573.538V365.323Z" fill="#949494"/>
<rect x="305" y="363" width="190" height="40" fill="#D9D9D9"/>
<rect x="495" y="363" width="197" height="39" transform="rotate(90 495 363)" fill="#D9D9D9"/>
<rect x="305" y="443" width="190" height="39" fill="#D9D9D9"/>
<rect x="305" y="521" width="190" height="39" fill="#D9D9D9"/>
</svg>
