<svg width="800" height="800" viewBox="0 0 800 800" fill="none" xmlns="http://www.w3.org/2000/svg">
<rect x="225" y="58.5" width="27" height="676" fill="#484848"/>
<rect x="252" y="58.5" width="280" height="38" fill="#484848"/>
<rect x="532" y="58.5" width="43" height="676" fill="#484848"/>
<rect x="252" y="703.5" width="280" height="31" fill="#484848"/>
<path d="M245 641.5C245 640.948 245.448 640.5 246 640.5H251C251.552 640.5 252 640.948 252 641.5V661.5C252 662.052 251.552 662.5 251 662.5H246C245.448 662.5 245 662.052 245 661.5V641.5Z" fill="#484848"/>
<path d="M251 640C251.828 640 252.5 640.672 252.5 641.5V661.5C252.5 662.328 251.828 663 251 663H246C245.172 663 244.5 662.328 244.5 661.5V641.5L244.508 641.347C244.585 640.59 245.223 640 246 640H251Z" stroke="black" stroke-opacity="0.5"/>
<path d="M481.5 753.925L254.5 722.064V85.917L481.5 44.5986V753.925Z" fill="#484848" stroke="black"/>
<path d="M482 44.5L486.5 46.5V58H491.5V738L486.5 739V753L482 755V44.5Z" fill="#333333" stroke="black"/>
<rect x="245" y="183.5" width="7" height="22" rx="1" fill="#484848"/>
<rect x="244.5" y="183" width="8" height="23" rx="1.5" stroke="black" stroke-opacity="0.5"/>
<rect x="245" y="209.5" width="7" height="21" rx="1" fill="#484848"/>
<rect x="244.5" y="209" width="8" height="22" rx="1.5" stroke="black" stroke-opacity="0.5"/>
<path d="M245 615.5C245 614.948 245.448 614.5 246 614.5H251C251.552 614.5 252 614.948 252 615.5V635.5C252 636.052 251.552 636.5 251 636.5H246C245.448 636.5 245 636.052 245 635.5V615.5Z" fill="#484848"/>
<path d="M251 614C251.828 614 252.5 614.672 252.5 615.5V635.5C252.5 636.328 251.828 637 251 637H246C245.172 637 244.5 636.328 244.5 635.5V615.5L244.508 615.347C244.585 614.59 245.223 614 246 614H251Z" stroke="black" stroke-opacity="0.5"/>
<ellipse cx="249" cy="207.5" rx="4" ry="2" fill="#F3F3F3" stroke="black" stroke-opacity="0.5"/>
<ellipse cx="249" cy="638.5" rx="4" ry="2" fill="#F3F3F3" stroke="black" stroke-opacity="0.5"/>
<rect x="446" y="388.5" width="15" height="21" rx="5" fill="#404241"/>
<path d="M409 394.5C428.789 394.029 436.178 394.446 451.996 394.495C453.653 394.5 455 395.843 455 397.5V400.552C455 402.189 453.699 403.522 452.062 403.546C444.342 403.657 423.1 403.903 409 403.5C391.499 403 387.999 395 409 394.5Z" fill="#333333"/>
</svg>
